<svg xmlns="http://www.w3.org/2000/svg" width="1024" height="1024" viewBox="0 0 1024 1024">
  <g fill="#1a1a1a">
    <path d="M345.8 546.5 350.9 572.6H383.2V447.9H286.3V485.7H337.3Q335.1 510 321.4 522.7Q307.6 535.5 282.4 535.5Q265.3 535.5 253.3 528.9Q241.4 522.2 233.9 511.2Q226.5 500.3 223.1 486.5Q219.7 472.8 219.7 458.3Q219.7 443.1 223.1 428.8Q226.5 414.6 233.9 403.5Q241.4 392.3 253.3 385.7Q265.3 379.1 282.4 379.1Q300.8 379.1 313.8 388.8Q326.7 398.5 331.2 417.9H379.7Q377.7 398.1 369 383Q360.3 367.8 346.9 357.4Q333.5 347.1 316.8 341.8Q300.2 336.4 282.4 336.4Q255.9 336.4 234.8 345.8Q213.6 355.2 199.1 371.7Q184.5 388.1 176.8 410.3Q169 432.4 169 458.3Q169 483.5 176.8 505.3Q184.5 527.1 199.1 543.2Q213.6 559.4 234.8 568.6Q255.9 577.8 282.4 577.8Q299.2 577.8 315.7 570.9Q332.2 563.9 345.8 546.5ZM417.8 341.9V572.6H468.5V473.1H561.9V572.6H612.7V341.9H561.9V430.5H468.5V341.9ZM701.5 530V384.6H737.7Q756.4 384.6 769.2 389.9Q782 395.2 789.7 405.3Q797.5 415.3 800.9 429.3Q804.3 443.4 804.3 460.8Q804.3 479.9 799.4 493.1Q794.6 506.4 786.5 514.6Q778.4 522.9 768.1 526.4Q757.7 530 746.8 530ZM650.8 341.9V572.6H750.3Q776.8 572.6 796.4 563.8Q815.9 554.9 829 539.4Q842.1 523.8 848.5 502.5Q855 481.2 855 456Q855 427.2 847.1 405.9Q839.2 384.6 825.1 370.4Q811.1 356.1 791.8 349Q772.6 341.9 750.3 341.9Z"/>
    <rect x="329.1" y="646.4" width="365.9" height="41.2" rx="20.6" fill-opacity="0.55"/>
  </g>
</svg>
